TITLE ""
FILE "P1Q_t_0549-0558.mp3" MP3
  TRACK 01 AUDIO
    TITLE "P1Q_t_0549-0558_01"
    INDEX 01 00:00:00
  TRACK 02 AUDIO
    TITLE "P1Q_t_0549-0558_02"
    INDEX 01 00:01:27
  TRACK 03 AUDIO
    TITLE "P1Q_t_0549-0558_03"
    INDEX 01 00:01:49
  TRACK 04 AUDIO
    TITLE "P1Q_t_0549-0558_04"
    INDEX 01 00:04:47
  TRACK 05 AUDIO
    TITLE "P1Q_t_0549-0558_05"
    INDEX 01 00:04:67
  TRACK 06 AUDIO
    TITLE "P1Q_t_0549-0558_06"
    INDEX 01 00:10:09
  TRACK 07 AUDIO
    TITLE "P1Q_t_0549-0558_07"
    INDEX 01 00:10:54
  TRACK 08 AUDIO
    TITLE "P1Q_t_0549-0558_08"
    INDEX 01 00:11:65
  TRACK 09 AUDIO
    TITLE "P1Q_t_0549-0558_09"
    INDEX 01 00:12:15
  TRACK 10 AUDIO
    TITLE "P1Q_t_0549-0558_10"
    INDEX 01 00:15:53
  TRACK 11 AUDIO
    TITLE "P1Q_t_0549-0558_11"
    INDEX 01 00:15:69
  TRACK 12 AUDIO
    TITLE "P1Q_t_0549-0558_12"
    INDEX 01 00:20:38
  TRACK 13 AUDIO
    TITLE "P1Q_t_0549-0558_13"
    INDEX 01 00:21:10
  TRACK 14 AUDIO
    TITLE "P1Q_t_0549-0558_14"
    INDEX 01 00:22:51
  TRACK 15 AUDIO
    TITLE "P1Q_t_0549-0558_15"
    INDEX 01 00:22:75
  TRACK 16 AUDIO
    TITLE "P1Q_t_0549-0558_16"
    INDEX 01 00:25:51
  TRACK 17 AUDIO
    TITLE "P1Q_t_0549-0558_17"
    INDEX 01 00:25:71
  TRACK 18 AUDIO
    TITLE "P1Q_t_0549-0558_18"
    INDEX 01 00:30:04
  TRACK 19 AUDIO
    TITLE "P1Q_t_0549-0558_19"
    INDEX 01 00:30:49
  TRACK 20 AUDIO
    TITLE "P1Q_t_0549-0558_20"
    INDEX 01 00:31:64
  TRACK 21 AUDIO
    TITLE "P1Q_t_0549-0558_21"
    INDEX 01 00:32:10
  TRACK 22 AUDIO
    TITLE "P1Q_t_0549-0558_22"
    INDEX 01 00:35:20
  TRACK 23 AUDIO
    TITLE "P1Q_t_0549-0558_23"
    INDEX 01 00:35:42
  TRACK 24 AUDIO
    TITLE "P1Q_t_0549-0558_24"
    INDEX 01 00:39:67
  TRACK 25 AUDIO
    TITLE "P1Q_t_0549-0558_25"
    INDEX 01 00:40:39
  TRACK 26 AUDIO
    TITLE "P1Q_t_0549-0558_26"
    INDEX 01 00:41:62
  TRACK 27 AUDIO
    TITLE "P1Q_t_0549-0558_27"
    INDEX 01 00:42:09
  TRACK 28 AUDIO
    TITLE "P1Q_t_0549-0558_28"
    INDEX 01 00:47:02
  TRACK 29 AUDIO
    TITLE "P1Q_t_0549-0558_29"
    INDEX 01 00:47:22
  TRACK 30 AUDIO
    TITLE "P1Q_t_0549-0558_30"
    INDEX 01 00:51:70
  TRACK 31 AUDIO
    TITLE "P1Q_t_0549-0558_31"
    INDEX 01 00:52:42
  TRACK 32 AUDIO
    TITLE "P1Q_t_0549-0558_32"
    INDEX 01 00:53:69
  TRACK 33 AUDIO
    TITLE "P1Q_t_0549-0558_33"
    INDEX 01 00:54:14
  TRACK 34 AUDIO
    TITLE "P1Q_t_0549-0558_34"
    INDEX 01 00:55:58
  TRACK 35 AUDIO
    TITLE "P1Q_t_0549-0558_35"
    INDEX 01 00:56:09
  TRACK 36 AUDIO
    TITLE "P1Q_t_0549-0558_36"
    INDEX 01 01:00:48
  TRACK 37 AUDIO
    TITLE "P1Q_t_0549-0558_37"
    INDEX 01 01:01:20
  TRACK 38 AUDIO
    TITLE "P1Q_t_0549-0558_38"
    INDEX 01 01:02:29
  TRACK 39 AUDIO
    TITLE "P1Q_t_0549-0558_39"
    INDEX 01 01:02:51
  TRACK 40 AUDIO
    TITLE "P1Q_t_0549-0558_40"
    INDEX 01 01:07:24
  TRACK 41 AUDIO
    TITLE "P1Q_t_0549-0558_41"
    INDEX 01 01:07:44
  TRACK 42 AUDIO
    TITLE "P1Q_t_0549-0558_42"
    INDEX 01 01:11:75
  TRACK 43 AUDIO
    TITLE "P1Q_t_0549-0558_43"
    INDEX 01 01:12:49
  TRACK 44 AUDIO
    TITLE "P1Q_t_0549-0558_44"
    INDEX 01 01:14:09
  TRACK 45 AUDIO
    TITLE "P1Q_t_0549-0558_45"
    INDEX 01 01:14:32
  TRACK 46 AUDIO
    TITLE "P1Q_t_0549-0558_46"
    INDEX 01 01:15:45
  TRACK 47 AUDIO
    TITLE "P1Q_t_0549-0558_47"
    INDEX 01 01:15:65
  TRACK 48 AUDIO
    TITLE "P1Q_t_0549-0558_48"
    INDEX 01 01:20:31
  TRACK 49 AUDIO
    TITLE "P1Q_t_0549-0558_49"
    INDEX 01 01:21:03
  TRACK 50 AUDIO
    TITLE "P1Q_t_0549-0558_50"
    INDEX 01 01:22:24
  TRACK 51 AUDIO
    TITLE "P1Q_t_0549-0558_51"
    INDEX 01 01:22:45
  TRACK 52 AUDIO
    TITLE "P1Q_t_0549-0558_52"
    INDEX 01 01:25:38
  TRACK 53 AUDIO
    TITLE "P1Q_t_0549-0558_53"
    INDEX 01 01:25:58
  TRACK 54 AUDIO
    TITLE "P1Q_t_0549-0558_54"
    INDEX 01 01:30:47
  TRACK 55 AUDIO
    TITLE "P1Q_t_0549-0558_55"
    INDEX 01 01:31:19
  TRACK 56 AUDIO
    TITLE "P1Q_t_0549-0558_56"
    INDEX 01 01:32:22
  TRACK 57 AUDIO
    TITLE "P1Q_t_0549-0558_57"
    INDEX 01 01:32:42
  TRACK 58 AUDIO
    TITLE "P1Q_t_0549-0558_58"
    INDEX 01 01:35:27
  TRACK 59 AUDIO
    TITLE "P1Q_t_0549-0558_59"
    INDEX 01 01:35:46
  TRACK 60 AUDIO
    TITLE "P1Q_t_0549-0558_60"
    INDEX 01 01:40:61
